<?xml version="1.0" encoding="UTF-8"?>
<svg version="1.1" xmlns="http://www.w3.org/2000/svg" width="225" height="225">
<path d="M0 0 C74.25 0 148.5 0 225 0 C225 74.25 225 148.5 225 225 C150.75 225 76.5 225 0 225 C0 150.75 0 76.5 0 0 Z " fill="#070304" transform="translate(0,0)"/>
<path d="M0 0 C6.27 0 12.54 0 19 0 C19.66 2.64 20.32 5.28 21 8 C23.45615991 11.62277579 23.45615991 11.62277579 27 14 C28.70363822 14.22622081 30.41328701 14.40888473 32.125 14.5625 C33.73375 14.706875 35.3425 14.85125 37 15 C37 19.62 37 24.24 37 29 C34.03 29 31.06 29 28 29 C28 27.35 28 25.7 28 24 C27.43152344 23.87625 26.86304688 23.7525 26.27734375 23.625 C19.69625483 21.86711314 15.64454444 18.81252103 12 13 C12 12.01 12 11.02 12 10 C11.01 10 10.02 10 9 10 C9 18.91 9 27.82 9 37 C18.24 37 27.48 37 37 37 C34.9866843 57.93848329 27.58472979 76.26984414 12 91 C2.09825674 99 2.09825674 99 0 99 C0 84.48 0 69.96 0 55 C2.97 55 5.94 55 9 55 C9 62.26 9 69.52 9 77 C17.74795121 68.25204879 22.95595463 59.2642722 25 47 C16.75 47 8.5 47 0 47 C0 31.49 0 15.98 0 0 Z " fill="#F9F9F9" transform="translate(123,77)"/>
<path d="M0 0 C6.27 0 12.54 0 19 0 C19 9.57 19 19.14 19 29 C16.03 29 13.06 29 10 29 C10 22.73 10 16.46 10 10 C9.01 10 8.02 10 7 10 C6.91105469 10.74894531 6.82210937 11.49789062 6.73046875 12.26953125 C5.86579231 15.50166405 4.83865722 16.54628102 2.3125 18.6875 C1.64863281 19.26886719 0.98476562 19.85023437 0.30078125 20.44921875 C-2 22 -2 22 -8 24 C-8.33 28.29 -8.66 32.58 -9 37 C0.24 37 9.48 37 19 37 C19 57.46 19 77.92 19 99 C3.98840917 88.99227278 -6.72591589 78.2537313 -13 61 C-13.38614361 59.00952161 -13.73595776 57.01032157 -14 55 C-11.03 55 -8.06 55 -5 55 C-4.49210937 56.01320312 -3.98421875 57.02640625 -3.4609375 58.0703125 C-2.7662258 59.42218391 -2.07087917 60.77372917 -1.375 62.125 C-1.04371094 62.79015625 -0.71242188 63.4553125 -0.37109375 64.140625 C-0.02949219 64.79804688 0.31210938 65.45546875 0.6640625 66.1328125 C0.96779785 66.72980957 1.2715332 67.32680664 1.58447266 67.94189453 C3.65305591 70.94951041 6.41883844 73.41883844 9 76 C9.33 66.1 9.66 56.2 10 46 C1.09 46 -7.82 46 -17 46 C-17.71885606 41.68686365 -18.11972133 38.22593767 -18.09765625 33.9453125 C-18.09443359 32.83671875 -18.09121094 31.728125 -18.08789062 30.5859375 C-18.07951172 29.44382812 -18.07113281 28.30171875 -18.0625 27.125 C-18.05798828 25.9596875 -18.05347656 24.794375 -18.04882812 23.59375 C-18.03708781 20.72911355 -18.0206657 17.86458367 -18 15 C-17.1642041 14.88027832 -16.3284082 14.76055664 -15.46728516 14.63720703 C-13.83218994 14.38753174 -13.83218994 14.38753174 -12.1640625 14.1328125 C-11.0807666 13.97184082 -9.9974707 13.81086914 -8.88134766 13.64501953 C-5.83319978 13.18667061 -5.83319978 13.18667061 -3.375 10.875 C-1.53584342 7.27542422 -1.53584342 7.27542422 0 0 Z " fill="#F5F5F5" transform="translate(83,77)"/>
<path d="M0 0 C2.5 0.5 2.5 0.5 4.875 2.0625 C6.5 4.5 6.5 4.5 6.3125 8.1875 C5.5 11.5 5.5 11.5 4.5 12.5 C4.34259395 14.20563778 4.24906608 15.91727244 4.18359375 17.62890625 C4.14169922 18.66337891 4.09980469 19.69785156 4.05664062 20.76367188 C4.01732422 21.85228516 3.97800781 22.94089844 3.9375 24.0625 C3.89431641 25.15498047 3.85113281 26.24746094 3.80664062 27.37304688 C3.70017932 30.08189564 3.59816484 32.79083992 3.5 35.5 C5.23382515 36.00252791 6.9699677 36.49706422 8.70703125 36.98828125 C10.15686401 37.40267456 10.15686401 37.40267456 11.63598633 37.82543945 C15.39754305 38.71139813 18.65482586 38.71765137 22.5 38.5 C22.995 40.975 22.995 40.975 23.5 43.5 C18.55 43.17 13.6 42.84 8.5 42.5 C7.84 43.82 7.18 45.14 6.5 46.5 C5.84 46.5 5.18 46.5 4.5 46.5 C4.50888245 47.73202652 4.51776489 48.96405304 4.5269165 50.2334137 C4.60834139 61.89859224 4.66812731 73.5637124 4.70724869 85.22911167 C4.72803816 91.22504675 4.75619669 97.22075065 4.80175781 103.21655273 C4.84552521 109.01321085 4.86920192 114.80964794 4.87950897 120.60645866 C4.88684523 122.8074281 4.90116965 125.00838675 4.92292023 127.20926094 C5.04068997 139.6308588 4.64580147 150.69213398 0.5 162.5 C-3.66755475 154.56624085 -4.94492457 146.88101631 -4.84057617 138.00146484 C-4.84123329 136.50697815 -4.84123329 136.50697815 -4.84190369 134.9822998 C-4.83983193 131.724972 -4.81657741 128.46817417 -4.79296875 125.2109375 C-4.78736706 122.93836752 -4.78309967 120.6657939 -4.78010559 118.39321899 C-4.76870202 112.43871903 -4.7392736 106.48444182 -4.70599365 100.5300293 C-4.67519576 94.44322726 -4.66157954 88.3563889 -4.64648438 82.26953125 C-4.61439949 70.3462568 -4.56325772 58.42314699 -4.5 46.5 C-5.82 45.84 -7.14 45.18 -8.5 44.5 C-8.5 43.84 -8.5 43.18 -8.5 42.5 C-13.45 42.83 -18.4 43.16 -23.5 43.5 C-23.17 41.85 -22.84 40.2 -22.5 38.5 C-21.22125 38.561875 -19.9425 38.62375 -18.625 38.6875 C-14.85630364 38.70648119 -11.76836279 38.12958783 -8.1796875 36.98828125 C-7.29780762 36.71153564 -6.41592773 36.43479004 -5.50732422 36.1496582 C-4.84490723 35.935271 -4.18249023 35.72088379 -3.5 35.5 C-3.6097568 31.72856018 -3.74041479 27.95812903 -3.875 24.1875 C-3.9059375 23.11564453 -3.936875 22.04378906 -3.96875 20.93945312 C-4.00742188 19.91142578 -4.04609375 18.88339844 -4.0859375 17.82421875 C-4.1173584 16.87635498 -4.1487793 15.92849121 -4.18115234 14.9519043 C-4.3489051 12.2469731 -4.3489051 12.2469731 -6.5 9.5 C-7.01319996 6.16420026 -6.82222026 4.94156109 -4.8125 2.1875 C-2.5 0.5 -2.5 0.5 0 0 Z " fill="#F6F6F6" transform="translate(112.5,30.5)"/>
<path d="M0 0 C0.99 0 1.98 0 3 0 C3 6.27 3 12.54 3 19 C5.97 19 8.94 19 12 19 C12 15.37 12 11.74 12 8 C13.98 8 15.96 8 18 8 C18 21.86 18 35.72 18 50 C16.02 50 14.04 50 12 50 C12 42.41 12 34.82 12 27 C2.76 27 -6.48 27 -16 27 C-16 22.71 -16 18.42 -16 14 C-14.453125 13.29875 -12.90625 12.5975 -11.3125 11.875 C-6.57205464 9.51149183 -3.94862952 7.37538574 -1 3 C-0.67 2.01 -0.34 1.02 0 0 Z " fill="#434142" transform="translate(90,87)"/>
<path d="M0 0 C0.33 0 0.66 0 1 0 C1 5.94 1 11.88 1 18 C2.65 18 4.3 18 6 18 C6 27.57 6 37.14 6 47 C14.25 47 22.5 47 31 47 C29.69910941 58.7080153 25.52476724 68.67348316 17 77 C16.34 77 15.68 77 15 77 C15 69.74 15 62.48 15 55 C12.03 55 9.06 55 6 55 C6 56.65 6 58.3 6 60 C4.02 60 2.04 60 0 60 C0 40.2 0 20.4 0 0 Z " fill="#474546" transform="translate(117,77)"/>
<path d="M0 0 C0.556875 0.7425 1.11375 1.485 1.6875 2.25 C3.8309355 5.09238312 3.8309355 5.09238312 6.71069336 6.66479492 C9.82275074 9.83924612 9.60963832 12.05987416 9.66908264 16.38679504 C9.65582443 17.36903549 9.64256622 18.35127594 9.62890625 19.36328125 C9.63131821 20.38745651 9.63373016 21.41163177 9.63621521 22.46684265 C9.6352354 24.63979959 9.62181013 26.81278106 9.59692383 28.9855957 C9.56301446 32.26277952 9.57615887 35.53720369 9.59570312 38.81445312 C9.58536266 50.48283588 8.91945064 60.93983169 5 72 C0.27355394 62.93545331 -0.42162539 54.44864237 -0.29296875 44.3359375 C-0.28872391 43.06271637 -0.28447906 41.78949524 -0.28010559 40.47769165 C-0.26624915 37.12710905 -0.23939741 33.77716479 -0.20599365 30.42675781 C-0.17505403 26.99419609 -0.16154975 23.56156785 -0.14648438 20.12890625 C-0.11355087 13.41909773 -0.06345363 6.70958563 0 0 Z " fill="#FBFBFB" transform="translate(108,121)"/>
<path d="M0 0 C5.94 0 11.88 0 18 0 C18.391875 1.4025 18.78375 2.805 19.1875 4.25 C20.66126873 8.54961887 21.80500757 10.8578762 26 13 C29.36505864 13.59869141 32.57218401 13.81718315 36 14 C36 18.62 36 23.24 36 28 C33.03 28 30.06 28 27 28 C27 26.35 27 24.7 27 23 C26.43152344 22.87625 25.86304688 22.7525 25.27734375 22.625 C18.69625483 20.86711314 14.64454444 17.81252103 11 12 C11 11.01 11 10.02 11 9 C10.01 9 9.02 9 8 9 C8.020625 9.804375 8.04125 10.60875 8.0625 11.4375 C8 14 8 14 7 15 C4.69 15 2.38 15 0 15 C0 10.05 0 5.1 0 0 Z " fill="#F8F8F8" transform="translate(124,78)"/>
<path d="M0 0 C6.27 0 12.54 0 19 0 C19 0.33 19 0.66 19 1 C13.06 1 7.12 1 1 1 C1 5.95 1 10.9 1 16 C3.64 15.67 6.28 15.34 9 15 C9 22.26 9 29.52 9 37 C18.24 37 27.48 37 37 37 C36.67 37.99 36.34 38.98 36 40 C36 39.34 36 38.68 36 38 C29.4 38 22.8 38 16 38 C15.67 40.31 15.34 42.62 15 45 C18.3 45.33 21.6 45.66 25 46 C25 46.33 25 46.66 25 47 C16.75 47 8.5 47 0 47 C0 31.49 0 15.98 0 0 Z " fill="#C6C6C6" transform="translate(123,77)"/>
<path d="M0 0 C0.33 0 0.66 0 1 0 C1 5.94 1 11.88 1 18 C2.65 18 4.3 18 6 18 C6 27.57 6 37.14 6 47 C10.29 47 14.58 47 19 47 C14.375 52.875 14.375 52.875 11 54 C9.29367352 54.09267588 7.58383413 54.12998202 5.875 54.125 C4.98554687 54.12757813 4.09609375 54.13015625 3.1796875 54.1328125 C1 54 1 54 0 53 C-0.09346915 51.34261557 -0.11744977 49.68125356 -0.11352539 48.02124023 C-0.11344986 46.96021591 -0.11337433 45.89919159 -0.11329651 44.80601501 C-0.10813522 43.651866 -0.10297394 42.49771698 -0.09765625 41.30859375 C-0.0962413 40.13361832 -0.09482635 38.95864288 -0.09336853 37.74806213 C-0.08774992 33.97784936 -0.07519426 30.20769496 -0.0625 26.4375 C-0.0574874 23.88867273 -0.05292408 21.33984453 -0.04882812 18.79101562 C-0.03777444 12.52732367 -0.02101821 6.26366601 0 0 Z " fill="#565556" transform="translate(117,77)"/>
<path d="M0 0 C6.27 0 12.54 0 19 0 C19 7.26 19 14.52 19 22 C16.36 22 13.72 22 11 22 C11 17.38 11 12.76 11 8 C7.37 8 3.74 8 0 8 C0 5.36 0 2.72 0 0 Z " fill="#FEFEFE" transform="translate(82,115)"/>
<path d="M0 0 C0.99 0 1.98 0 3 0 C3.37125 0.886875 3.7425 1.77375 4.125 2.6875 C5.79308786 6.18331225 5.79308786 6.18331225 9.09375 8.1875 C10.99633269 9.71643323 11.87544541 10.5149353 12.48779297 12.8996582 C12.58956547 15.06548843 12.52575049 17.14981026 12.375 19.3125 C12.34792969 20.05306641 12.32085937 20.79363281 12.29296875 21.55664062 C12.22268284 23.37235998 12.11507089 25.18656801 12 27 C8.04 27 4.08 27 0 27 C0 18.09 0 9.18 0 0 Z " fill="#424041" transform="translate(132,87)"/>
<path d="M0 0 C6.27 0 12.54 0 19 0 C19 9.57 19 19.14 19 29 C16.03 29 13.06 29 10 29 C10 22.73 10 16.46 10 10 C9.01 10 8.02 10 7 10 C6.896875 10.763125 6.79375 11.52625 6.6875 12.3125 C5.95288806 15.18416484 5.3283935 16.23042094 3 18 C2.34 18 1.68 18 1 18 C1.75 11.25 1.75 11.25 4 9 C7.0390625 8.8046875 7.0390625 8.8046875 10.625 8.875 C12.40777344 8.90207031 12.40777344 8.90207031 14.2265625 8.9296875 C15.14179687 8.95289062 16.05703125 8.97609375 17 9 C17.33 6.36 17.66 3.72 18 1 C12.06 1 6.12 1 0 1 C0 0.67 0 0.34 0 0 Z " fill="#D0D0D0" transform="translate(83,77)"/>
<path d="M0 0 C8.58 0 17.16 0 26 0 C26 10.23 26 20.46 26 31 C25.67 31 25.34 31 25 31 C25 25.39 25 19.78 25 14 C22.8034375 14.0309375 22.8034375 14.0309375 20.5625 14.0625 C19.04167482 14.08392007 17.51928038 14.07179964 16 14 C15 13 15 13 14.90234375 10.27734375 C14.93489583 7.18489583 14.96744792 4.09244792 15 1 C10.05 1 5.1 1 0 1 C0 0.67 0 0.34 0 0 Z " fill="#535253" transform="translate(67,123)"/>
<path d="M0 0 C0 9.24 0 18.48 0 28 C-4.86962259 25.07822644 -6.50954292 23.88867501 -9 19 C-9.65068786 13.14380927 -8.92499733 9.2448228 -6 4 C-1.69230769 0 -1.69230769 0 0 0 Z " fill="#F9F9F9" transform="translate(117,102)"/>
<path d="M0 0 C1.32 0 2.64 0 4 0 C3.81085925 10.97016329 -1.61288641 21.0455754 -9 29 C-9.66 29 -10.32 29 -11 29 C-11 23.72 -11 18.44 -11 13 C-9.535625 12.855625 -8.07125 12.71125 -6.5625 12.5625 C-3.48153302 12.46504174 -3.48153302 12.46504174 -1 11 C-0.76636119 9.15108054 -0.58696365 7.29511969 -0.4375 5.4375 C-0.35371094 4.42558594 -0.26992187 3.41367188 -0.18359375 2.37109375 C-0.12300781 1.58863281 -0.06242188 0.80617188 0 0 Z " fill="#0A0808" transform="translate(144,124)"/>
<path d="M0 0 C9.24 0 18.48 0 28 0 C27.67 0.99 27.34 1.98 27 3 C27 2.34 27 1.68 27 1 C20.4 1 13.8 1 7 1 C6.67 3.31 6.34 5.62 6 8 C9.3 8.33 12.6 8.66 16 9 C16 9.33 16 9.66 16 10 C7.75 10 -0.5 10 -9 10 C-9 9.67 -9 9.34 -9 9 C-6.69 9 -4.38 9 -2 9 C-1.34 6.03 -0.68 3.06 0 0 Z " fill="#B9B9B9" transform="translate(132,114)"/>
<path d="M0 0 C0 4.95 0 9.9 0 15 C-2.64 15 -5.28 15 -8 15 C-8 10.71 -8 6.42 -8 2 C-3 0 -3 0 0 0 Z " fill="#100E0F" transform="translate(82,99)"/>
<path d="M0 0 C2.97 0 5.94 0 9 0 C9 2.31 9 4.62 9 7 C6.36 7 3.72 7 1 7 C1 19.21 1 31.42 1 44 C0.67 44 0.34 44 0 44 C0 29.48 0 14.96 0 0 Z " fill="#D6D6D6" transform="translate(123,132)"/>
<path d="M0 0 C2.97 0 5.94 0 9 0 C9 3.63 9 7.26 9 11 C6.03 11 3.06 11 0 11 C0 7.37 0 3.74 0 0 Z " fill="#FAFAFA" transform="translate(93,95)"/>
<path d="M0 0 C6 1 6 1 7.5 3 C8.21334205 7.2800523 7.16924486 10.87166624 6 15 C4.02 15 2.04 15 0 15 C0 10.05 0 5.1 0 0 Z " fill="#FCFBFC" transform="translate(124,108)"/>
<path d="M0 0 C2.97 0 5.94 0 9 0 C9.375 3.1875 9.375 3.1875 9 7 C7.05651499 8.73223664 5.05279996 10.39881603 3 12 C1.58409628 15.15501165 1.58409628 15.15501165 1 18 C0.67 18 0.34 18 0 18 C0 12.06 0 6.12 0 0 Z " fill="#FDFDFD" transform="translate(108,95)"/>
<path d="M0 0 C0 4.62 0 9.24 0 14 C2.31 14 4.62 14 7 14 C5 16 5 16 2.6171875 16.1953125 C1.71226563 16.17210938 0.80734375 16.14890625 -0.125 16.125 C-1.49011719 16.09792969 -1.49011719 16.09792969 -2.8828125 16.0703125 C-3.58148438 16.04710938 -4.28015625 16.02390625 -5 16 C-5.1080023 13.89695523 -5.18558987 11.79233091 -5.25 9.6875 C-5.31960937 7.92986328 -5.31960937 7.92986328 -5.390625 6.13671875 C-5 3 -5 3 -3.046875 1.08203125 C-1 0 -1 0 0 0 Z " fill="#040203" transform="translate(123,110)"/>
<path d="M0 0 C0.33 0.99 0.66 1.98 1 3 C0.175 3.598125 -0.65 4.19625 -1.5 4.8125 C-4.17357549 7.48607549 -4.47264425 9.70986277 -4.625 13.4375 C-4.40756398 19.00836082 -2.79841665 21.10418805 1 25 C0.67 25.99 0.34 26.98 0 28 C-3.61983266 25.35850049 -6.20730333 23.15150807 -8 19 C-8.56665861 13.14452769 -7.92572414 9.24612604 -5 4 C-2.3125 1.5625 -2.3125 1.5625 0 0 Z " fill="#D5D5D5" transform="translate(116,102)"/>
<path d="M0 0 C0 0.33 0 0.66 0 1 C-0.9075 1.226875 -1.815 1.45375 -2.75 1.6875 C-6.16105601 2.7183749 -6.16105601 2.7183749 -7.8125 5.625 C-10 8 -10 8 -12.24609375 8.32421875 C-14.51685015 8.31359118 -16.74020065 8.2172884 -19 8 C-19 9.65 -19 11.3 -19 13 C-20.98 13 -22.96 13 -25 13 C-25 10.69 -25 8.38 -25 6 C-24.26394531 6.03480469 -23.52789062 6.06960937 -22.76953125 6.10546875 C-15.35324952 6.44389837 -15.35324952 6.44389837 -9 3 C-8.525625 2.443125 -8.05125 1.88625 -7.5625 1.3125 C-5.17739302 -0.69098986 -2.99633505 -0.19975567 0 0 Z " fill="#3E3C3D" transform="translate(142,124)"/>
<path d="M0 0 C6 1 6 1 9 3 C9.40843923 5.71203652 9.13336867 8.2437142 9 11 C8.34 10.34 7.68 9.68 7 9 C7 8.01 7 7.02 7 6 C4.03 5.505 4.03 5.505 1 5 C1 9.95 1 14.9 1 20 C0.67 20 0.34 20 0 20 C0 13.4 0 6.8 0 0 Z " fill="#E3E2E2" transform="translate(123,103)"/>
<path d="M0 0 C1.65 0 3.3 0 5 0 C5 1.32 5 2.64 5 4 C7.64 4 10.28 4 13 4 C13 4.99 13 5.98 13 7 C8.71 7 4.42 7 0 7 C0 4.69 0 2.38 0 0 Z " fill="#050404" transform="translate(87,102)"/>
<path d="M0 0 C0 5.28 0 10.56 0 16 C-0.66 16 -1.32 16 -2 16 C-4.49943187 12.2508522 -4.60662409 8.35341994 -4 4 C-1.7 0 -1.7 0 0 0 Z " fill="#EFEFEF" transform="translate(117,108)"/>
<path d="M0 0 C2.64 0 5.28 0 8 0 C8 2.64 8 5.28 8 8 C5.36 7.01 2.72 6.02 0 5 C0 3.35 0 1.7 0 0 Z " fill="#FCFCFC" transform="translate(124,95)"/>
<path d="M0 0 C0.99 0.33 1.98 0.66 3 1 C-2.60276846 6.90562081 -2.60276846 6.90562081 -7.48046875 7.09765625 C-8.37378906 7.08605469 -9.26710938 7.07445312 -10.1875 7.0625 C-11.08855469 7.05347656 -11.98960938 7.04445312 -12.91796875 7.03515625 C-13.60503906 7.02355469 -14.29210937 7.01195312 -15 7 C-15.33 6.01 -15.66 5.02 -16 4 C-15.02160156 4.06960937 -15.02160156 4.06960937 -14.0234375 4.140625 C-7.77019199 4.39887113 -4.94461103 3.73860834 0 0 Z " fill="#050505" transform="translate(133,124)"/>
<path d="M0 0 C1.65 0 3.3 0 5 0 C5 2.64 5 5.28 5 8 C3.35 8.33 1.7 8.66 0 9 C0 6.03 0 3.06 0 0 Z " fill="#141414" transform="translate(118,101)"/>
<path d="M0 0 C2.31 0 4.62 0 7 0 C7 1.32 7 2.64 7 4 C7.66 4.33 8.32 4.66 9 5 C6.03 5 3.06 5 0 5 C0 3.35 0 1.7 0 0 Z " fill="#DBDBDB" transform="translate(93,101)"/>
<path d="M0 0 C-4.90924297 3.92739438 -7.73920552 4.43177893 -14 4 C-13.67 3.01 -13.34 2.02 -13 1 C-11.39796533 0.63631108 -9.79325797 0.28438048 -8.1875 -0.0625 C-7.29417969 -0.25972656 -6.40085937 -0.45695312 -5.48046875 -0.66015625 C-3 -1 -3 -1 0 0 Z " fill="#363535" transform="translate(133,125)"/>
<path d="M0 0 C0.33 0 0.66 0 1 0 C1 2.31 1 4.62 1 7 C-1.97 7 -4.94 7 -8 7 C-8 5.68 -8 4.36 -8 3 C-5.69 3.33 -3.38 3.66 -1 4 C-0.67 2.68 -0.34 1.36 0 0 Z " fill="#DADADA" transform="translate(101,88)"/>
<path d="M0 0 C0.99 0 1.98 0 3 0 C3 2.64 3 5.28 3 8 C1.02 8 -0.96 8 -3 8 C-2.690625 7.236875 -2.38125 6.47375 -2.0625 5.6875 C-1.32106407 3.81210323 -0.63771783 1.91315348 0 0 Z " fill="#242323" transform="translate(90,87)"/>
<path d="M0 0 C2.64 0 5.28 0 8 0 C8 1.32 8 2.64 8 4 C5.36 4 2.72 4 0 4 C0 2.68 0 1.36 0 0 Z " fill="#FEFDFE" transform="translate(124,133)"/>
<path d="M0 0 C1.65 0 3.3 0 5 0 C5 1.98 5 3.96 5 6 C3.35 6 1.7 6 0 6 C0 4.02 0 2.04 0 0 Z " fill="#413F40" transform="translate(118,95)"/>
<path d="M0 0 C0.66 0 1.32 0 2 0 C5 5.75 5 5.75 5 8 C3.35 8 1.7 8 0 8 C0 5.36 0 2.72 0 0 Z " fill="#070607" transform="translate(133,87)"/>
<path d="M0 0 C0.95465783 2.16967689 1.14401212 3.56328793 0.3984375 5.82421875 C-0.35870385 7.5684743 -1.17609198 9.28627131 -2 11 C-2.33 11 -2.66 11 -3 11 C-3.36923077 4.6 -3.36923077 4.6 -1.5 1.5625 C-1.005 1.046875 -0.51 0.53125 0 0 Z " fill="#DCDCDC" transform="translate(116,108)"/>
<path d="M0 0 C0.99 0 1.98 0 3 0 C2.67 2.31 2.34 4.62 2 7 C1.01 7.33 0.02 7.66 -1 8 C-0.67 5.36 -0.34 2.72 0 0 Z " fill="#D6D6D6" transform="translate(136,115)"/>
<path d="M0 0 C5.57142857 5.14285714 5.57142857 5.14285714 6 9 C5.01 9 4.02 9 3 9 C0 3.375 0 3.375 0 0 Z " fill="#040404" transform="translate(133,105)"/>
<path d="M0 0 C3.73487777 0.4979837 5.81237635 0.87491756 9 3 C8.67 3.99 8.34 4.98 8 6 C5.36 4.68 2.72 3.36 0 2 C0 1.34 0 0.68 0 0 Z " fill="#F8F7F8" transform="translate(123,103)"/>
<path d="M0 0 C2.64 0.33 5.28 0.66 8 1 C8.33 2.32 8.66 3.64 9 5 C6.03 4.01 3.06 3.02 0 2 C0 1.34 0 0.68 0 0 Z " fill="#CFCFCF" transform="translate(123,101)"/>
<path d="M0 0 C3.4375 0.8125 3.4375 0.8125 7 2 C7.33 2.99 7.66 3.98 8 5 C7.01 5.495 7.01 5.495 6 6 C3.97945196 4.35830472 1.97956942 2.69088222 0 1 C0 0.67 0 0.34 0 0 Z " fill="#E6E6E6" transform="translate(138,93)"/>
<path d="M0 0 C2.31 0 4.62 0 7 0 C7 0.99 7 1.98 7 3 C4.69 3 2.38 3 0 3 C0 2.01 0 1.02 0 0 Z " fill="#FDFDFD" transform="translate(93,88)"/>
</svg>
